<svg width="21" height="20" viewBox="0 0 21 20" fill="none" xmlns="http://www.w3.org/2000/svg">
<path d="M6 1H5.10022C3.8401 1 3.20957 1 2.72827 1.24524C2.30491 1.46095 1.96095 1.80491 1.74524 2.22827C1.5 2.70957 1.5 3.3401 1.5 4.60022V15.4002C1.5 16.6603 1.5 17.2901 1.74524 17.7714C1.96095 18.1947 2.30491 18.5393 2.72827 18.755C3.2091 19 3.83887 19 5.09652 19H6M6 1H15.9002C17.1603 1 17.7895 1 18.2708 1.24524C18.6942 1.46095 19.0393 1.80491 19.255 2.22827C19.5 2.7091 19.5 3.33887 19.5 4.59652V15.404C19.5 16.6617 19.5 17.2905 19.255 17.7714C19.0393 18.1947 18.6942 18.5393 18.2708 18.755C17.79 19 17.1611 19 15.9035 19H6M6 1V19M10.5 8.875H15M10.5 5.5H15" stroke="black" stroke-width="2" stroke-linecap="round" stroke-linejoin="round"/>
</svg>
