<svg width="21" height="20" viewBox="0 0 21 20" fill="none" xmlns="http://www.w3.org/2000/svg">
<path d="M6.00977 17.8018C7.33126 18.5639 8.86453 19 10.4996 19C15.4702 19 19.5 14.9706 19.5 10C19.5 5.02944 15.4706 1 10.5 1C5.52944 1 1.5 5.02944 1.5 10C1.5 11.6351 1.93604 13.1684 2.69819 14.4899L2.70114 14.495C2.77448 14.6221 2.81146 14.6863 2.82821 14.7469C2.84401 14.804 2.84842 14.8554 2.84437 14.9146C2.84003 14.9781 2.8186 15.044 2.77468 15.1758L2.00586 17.4823L2.00489 17.4853C1.84268 17.9719 1.76157 18.2152 1.81938 18.3774C1.86979 18.5187 1.98169 18.6303 2.12305 18.6807C2.28482 18.7384 2.52705 18.6577 3.01155 18.4962L3.01758 18.4939L5.32405 17.7251C5.45537 17.6813 5.52214 17.6591 5.58559 17.6548C5.64475 17.6507 5.69578 17.6561 5.75293 17.6719C5.81368 17.6887 5.87783 17.7257 6.00563 17.7994L6.00977 17.8018Z" stroke="black" stroke-width="2" stroke-linecap="round" stroke-linejoin="round"/>
</svg>
